<?xml version="1.0" encoding="UTF-8" standalone="no"?>
<!-- Created with Inkscape (http://www.inkscape.org/) -->

<svg
   xmlns:dc="http://purl.org/dc/elements/1.1/"
   xmlns:cc="http://creativecommons.org/ns#"
   xmlns:rdf="http://www.w3.org/1999/02/22-rdf-syntax-ns#"
   xmlns:svg="http://www.w3.org/2000/svg"
   xmlns="http://www.w3.org/2000/svg"
   xmlns:sodipodi="http://sodipodi.sourceforge.net/DTD/sodipodi-0.dtd"
   xmlns:inkscape="http://www.inkscape.org/namespaces/inkscape"
   width="1024"
   height="1052.3622"
   id="svg5158"
   version="1.1"
   inkscape:version="0.48.2 r9819"
   sodipodi:docname="OutlineCombinedGear.svg">
  <sodipodi:namedview
     id="base"
     pagecolor="#ffffff"
     bordercolor="#666666"
     borderopacity="1.0"
     inkscape:pageopacity="0.0"
     inkscape:pageshadow="2"
     inkscape:zoom="0.25380554"
     inkscape:cx="-13.182551"
     inkscape:cy="576.62787"
     inkscape:document-units="px"
     inkscape:current-layer="layer1"
     showgrid="false"
     inkscape:window-width="1097"
     inkscape:window-height="634"
     inkscape:window-x="37"
     inkscape:window-y="139"
     inkscape:window-maximized="0" />
  <defs
     id="defs5160" />
  <metadata
     id="metadata5163">
    <rdf:RDF>
      <cc:Work
         rdf:about="">
        <dc:format>image/svg+xml</dc:format>
        <dc:type
           rdf:resource="http://purl.org/dc/dcmitype/StillImage" />
        <dc:title></dc:title>
      </cc:Work>
    </rdf:RDF>
  </metadata>
  <g
     id="layer1"
     inkscape:groupmode="layer"
     inkscape:label="Layer 1">
    <g
       inkscape:label="Gear24"
       transform="translate(333.80261,419.22185)"
       id="g5187" />
    <path
       style="fill:none;fill-opacity:0.57971012000000000;fill-rule:evenodd;stroke:#000000;stroke-width:3.14999999999999991;stroke-linecap:butt;stroke-linejoin:miter;stroke-opacity:1;stroke-miterlimit:4;stroke-dasharray:none"
       d="m 854.41468,498.60716 8.6043,-0.69168 22.93319,3.75762 31.87609,13.33809 0,22.33971 -31.87609,13.3381 -22.93319,3.75762 -8.6043,-0.69167 -4.52778,34.41707 8.48653,1.55505 21.17704,9.56576 27.34334,21.13296 -5.78356,21.58425 -34.24541,4.63081 -23.12455,-2.3056 -8.12845,-2.89425 -13.28413,32.06735 7.79487,3.70366 17.98363,14.71654 20.93669,27.4905 -11.16984,19.35225 -34.27483,-4.39043 -21.74123,-8.21183 -7.10318,-4.90061 -21.13296,27.53955 6.57339,5.59229 13.55884,18.87151 13.11244,31.97413 -15.80067,15.80067 -31.97413,-13.11243 -18.87151,-13.55885 -5.59229,-6.57339 -27.53955,21.13296 4.90061,7.10318 8.21183,21.74124 4.39043,34.27484 -19.35225,11.16984 -27.4905,-20.93669 -14.71654,-17.98365 -3.70366,-7.79487 -32.06735,13.28413 2.89425,8.12847 2.3056,23.12455 -4.63081,34.24549 -21.58425,5.78348 -21.13296,-27.34333 -9.56576,-21.17704 -1.55505,-8.48655 -34.41707,4.5278 0.69167,8.60421 -3.75762,22.93327 -13.3381,31.87616 -22.33971,0 -13.33809,-31.87616 -3.75762,-22.93327 0.69168,-8.60421 -34.41709,-4.5278 -1.55505,8.48655 -9.56575,21.17704 -21.13296,27.34333 -21.58426,-5.78348 -4.6308,-34.24549 2.30559,-23.12455 2.89426,-8.12847 -32.06734,-13.28413 -3.70367,7.79487 -14.71654,17.98365 -27.4905,20.93669 -19.35225,-11.16984 4.39043,-34.27484 8.21183,-21.74124 4.90061,-7.10318 -27.53955,-21.13296 -5.5923,6.57339 -18.8715,13.55885 -31.97414,13.11243 -15.80066,-15.80067 13.11243,-31.97413 13.55885,-18.87151 6.57339,-5.59229 -21.13296,-27.53955 -7.10318,4.90061 -21.74124,8.21183 -34.27482,4.39043 -11.16985,-19.35225 20.93672,-27.4905 17.98361,-14.71654 7.79487,-3.70366 -13.28413,-32.06735 -8.12844,2.89425 -23.1246,2.3056 -34.24539,-4.63081 -5.7836,-21.58425 27.34334,-21.13296 21.1771,-9.56576 8.48654,-1.55505 -4.52779,-34.41707 -8.60427,0.69167 -22.93329,-3.75762 -31.87602,-13.3381 0,-22.33971 31.87602,-13.33809 22.93329,-3.75762 8.60427,0.69168 4.52779,-34.41709 -8.48654,-1.55505 -21.1771,-9.56575 -27.34334,-21.13296 5.7836,-21.58426 34.24539,-4.6308 23.1246,2.3056 8.12844,2.89425 13.28413,-32.06734 -7.79487,-3.70367 -17.98361,-14.71654 -20.93672,-27.4905 11.16985,-19.35225 34.27482,4.39043 21.74124,8.21183 7.10318,4.90061 21.13296,-27.53955 -6.57339,-5.5923 -13.55885,-18.8715 -13.11243,-31.97414 15.80066,-15.80066 31.97414,13.11243 18.8715,13.55885 5.5923,6.57339 27.53955,-21.13296 -4.90061,-7.10318 -8.21183,-21.74124 -4.39043,-34.27482 19.35225,-11.16986 27.4905,20.93673 14.71654,17.98361 3.70367,7.79487 32.06734,-13.28413 -2.89426,-8.12844 -2.30559,-23.1246 4.6308,-34.24539 21.58426,-5.7836 21.13296,27.34334 9.56575,21.1771 1.55505,8.48654 34.41709,-4.52779 -0.69168,-8.60427 3.75762,-22.93329 13.33809,-31.87602 22.33971,0 13.3381,31.87602 3.75762,22.93329 -0.69167,8.60427 34.41707,4.52779 1.55505,-8.48654 9.56576,-21.1771 21.13296,-27.34334 21.58425,5.7836 4.63081,34.24539 -2.3056,23.1246 -2.89425,8.12844 32.06735,13.28413 3.70366,-7.79487 14.71654,-17.98361 27.4905,-20.93673 19.35225,11.16986 -4.39043,34.27482 -8.21183,21.74124 -4.90061,7.10318 27.53955,21.13296 5.59229,-6.57339 18.87151,-13.55885 31.97413,-13.11243 15.80066,15.80066 -13.11243,31.97414 -13.55885,18.8715 -6.57339,5.5923 21.13297,27.53955 7.10317,-4.90061 21.74124,-8.21183 34.27482,-4.39043 11.16984,19.35225 -20.93669,27.4905 -17.98363,14.71654 -7.79487,3.70367 13.28413,32.06734 8.12846,-2.89425 23.12455,-2.3056 34.24541,4.6308 5.78355,21.58426 -27.34333,21.13296 -21.17704,9.56575 -8.48654,1.55505 z"
       id="path5220" />
  </g>
</svg>
