<?xml version="1.0" encoding="UTF-8" standalone="no"?>
<svg
   xmlns:dc="http://purl.org/dc/elements/1.1/"
   xmlns:cc="http://creativecommons.org/ns#"
   xmlns:rdf="http://www.w3.org/1999/02/22-rdf-syntax-ns#"
   xmlns:svg="http://www.w3.org/2000/svg"
   xmlns="http://www.w3.org/2000/svg"
   xmlns:sodipodi="http://sodipodi.sourceforge.net/DTD/sodipodi-0.dtd"
   xmlns:inkscape="http://www.inkscape.org/namespaces/inkscape"
   height="512px"
   id="Слой_1"
   style="enable-background:new 0 0 512 512;"
   version="1.1"
   viewBox="0 0 512 512"
   width="512px"
   xml:space="preserve"
   inkscape:version="0.91 r"
   sodipodi:docname="logo.svg"><metadata
     id="metadata9"><rdf:RDF><cc:Work
         rdf:about=""><dc:format>image/svg+xml</dc:format><dc:type
           rdf:resource="http://purl.org/dc/dcmitype/StillImage" /><dc:title></dc:title></cc:Work></rdf:RDF></metadata><defs
     id="defs7" /><sodipodi:namedview
     pagecolor="#ffffff"
     bordercolor="#666666"
     borderopacity="1"
     objecttolerance="10"
     gridtolerance="10"
     guidetolerance="10"
     inkscape:pageopacity="0"
     inkscape:pageshadow="2"
     inkscape:window-width="1920"
     inkscape:window-height="1053"
     id="namedview5"
     showgrid="false"
     inkscape:zoom="0.4609375"
     inkscape:cx="-103.05085"
     inkscape:cy="256"
     inkscape:window-x="0"
     inkscape:window-y="0"
     inkscape:window-maximized="1"
     inkscape:current-layer="Слой_1" /><g
     id="g5606"
     inkscape:export-filename="/home/hpa/git/worksaldo/android/src/main/graphics/logo.svg"
     inkscape:export-xdpi="78.669998"
     inkscape:export-ydpi="78.669998"><rect
       y="-47.728817"
       x="-34.711857"
       height="585.7627"
       width="585.7627"
       id="rect5604"
       style="opacity:0.44500002;fill:none;fill-opacity:0.49372385;fill-rule:evenodd;stroke:none;stroke-width:15.39999962;stroke-miterlimit:4;stroke-dasharray:none;stroke-opacity:1" /><path
       inkscape:connector-curvature="0"
       id="path3"
       style="fill:#aa0000;stroke:#ffffff;stroke-width:15.39999962;stroke-miterlimit:4;stroke-dasharray:none;stroke-opacity:1"
       d="m 353.1945,54.034542 c -5.456,-33.393 -34.433,-58.8819999 -69.358,-58.8819999 l -51.369,0 c -34.924,0 -63.902,25.4889999 -69.358,58.8819999 -81.832999,37.062 -135.831999,119.730998 -135.831999,210.243998 0,127.29 103.572999,230.874 230.863999,230.874 127.233,0 230.84,-103.55 230.92,-230.897 -0.058,-90.467 -54.057,-173.112998 -135.867,-210.220998 z m -120.726,11.401 51.357,0 0,213.365998 -51.357,0 0,-213.365998 z m 25.683,359.455998 c -88.695,-0.012 -160.601999,-71.895 -160.624999,-160.613 0.023,-68.797 43.340999,-127.302 104.144999,-150.185 l 0,56.859 c -31.562,19.154 -52.707,53.701 -52.787,93.326 0.125,60.334 48.91,109.153 109.267,109.268 60.335,-0.115 109.153,-48.934 109.256,-109.268 -0.057,-39.613 -21.213,-74.16 -52.775,-93.304 l 0,-56.881 c 60.804,22.895 104.144,81.399 104.155,150.185 -0.044,88.718 -71.917,160.602 -160.636,160.613 z" /></g></svg>